<?xml version="1.0" encoding="UTF-8"?>
<svg width="145px" height="40px" viewBox="0 0 145 40" version="1.1" xmlns="http://www.w3.org/2000/svg" xmlns:xlink="http://www.w3.org/1999/xlink">
    <!-- Generator: Sketch 52.4 (67378) - http://www.bohemiancoding.com/sketch -->
    <title>glose.logo-black</title>
    <desc>Created with Sketch.</desc>
    <g id="Page-1" stroke="none" stroke-width="1" fill="none" fill-rule="evenodd">
        <g id="glose.logo-black">
            <path d="M18.6881768,2.3808 L18.6881768,30.8352 L13.881547,30.8352 L13.5739227,28.3392 C12.1383354,30.4128104 10.1900676,31.4496 7.72906077,31.4496 C5.21678302,31.4496 3.30055909,30.4832097 1.98033149,28.5504 C0.660103896,26.6175903 0,23.9872166 0,20.6592 C0,18.5599895 0.339665112,16.6976081 1.01900552,15.072 C1.69834594,13.4463919 2.66607107,12.1728046 3.92220994,11.2512 C5.17834882,10.3295954 6.62673213,9.8688 8.26740331,9.8688 C10.1644294,9.8688 11.8178935,10.5471932 13.2278453,11.904 L13.2278453,1.7664 L18.6881768,2.3808 Z M9.3440884,27.3792 C10.1387885,27.3792 10.8437538,27.180802 11.4590055,26.784 C12.0742572,26.387198 12.6638646,25.7664042 13.2278453,24.9216 L13.2278453,15.8208 C12.6895001,15.1807968 12.1447542,14.7008016 11.5935912,14.3808 C11.0424282,14.0607984 10.4079594,13.9008 9.69016574,13.9008 C8.43402687,13.9008 7.45348419,14.4511945 6.74850829,15.552 C6.04353238,16.6528055 5.69104972,18.3551885 5.69104972,20.6592 C5.69104972,23.0912122 6.00507973,24.8191949 6.63314917,25.8432 C7.26121861,26.8672051 8.16485598,27.3792 9.3440884,27.3792 Z M26.3275138,10.4832 L26.3275138,30.8352 L20.8671823,30.8352 L20.8671823,10.4832 L26.3275138,10.4832 Z M23.558895,0 C24.5330436,0 25.3341405,0.300796992 25.96221,0.9024 C26.5902794,1.50400301 26.9043094,2.26559539 26.9043094,3.1872 C26.9043094,4.10880461 26.5902794,4.87039699 25.96221,5.472 C25.3341405,6.07360301 24.5330436,6.3744 23.558895,6.3744 C22.5847465,6.3744 21.7900583,6.07360301 21.1748066,5.472 C20.559555,4.87039699 20.2519337,4.10880461 20.2519337,3.1872 C20.2519337,2.26559539 20.559555,1.50400301 21.1748066,0.9024 C21.7900583,0.300796992 22.5847465,0 23.558895,0 Z M46.7332597,11.5968 C45.4002143,12.1088026 43.439129,12.3648 40.8499448,12.3648 C42.1317191,12.9280028 43.0802179,13.6255958 43.6954696,14.4576 C44.3107213,15.2896042 44.6183426,16.3327937 44.6183426,17.5872 C44.6183426,18.8928065 44.2786774,20.0639948 43.599337,21.1008 C42.9199966,22.1376052 41.9458627,22.9503971 40.6769061,23.5392 C39.4079495,24.1280029 37.9275223,24.4224 36.2355801,24.4224 C35.3383381,24.4224 34.5436499,24.3328009 33.8514917,24.1536 C33.338782,24.4864017 33.082431,24.9343972 33.082431,25.4976 C33.082431,25.907202 33.2426503,26.2335988 33.5630939,26.4768 C33.8835375,26.7200012 34.5051888,26.8416 35.4280663,26.8416 L38.5427624,26.8416 C40.0552562,26.8416 41.3818728,27.0911975 42.522652,27.5904 C43.6634311,28.0896025 44.5478422,28.7807956 45.1759116,29.664 C45.8039811,30.5472044 46.1180111,31.5519944 46.1180111,32.6784 C46.1180111,34.7520104 45.2271912,36.3711942 43.4455249,37.536 C41.6638585,38.7008058 39.0939395,39.2832 35.7356906,39.2832 C33.3259548,39.2832 31.4225484,39.0336025 30.0254144,38.5344 C28.6282803,38.0351975 27.6477376,37.3120047 27.0837569,36.3648 C26.5197762,35.4175953 26.2377901,34.2272072 26.2377901,32.7936 L31.121326,32.7936 C31.121326,33.4592033 31.2495015,33.990398 31.5058564,34.3872 C31.7622112,34.784002 32.2300519,35.078399 32.9093923,35.2704 C33.5887327,35.462401 34.5692754,35.5584 35.8510497,35.5584 C37.6198984,35.5584 38.8567921,35.3408022 39.561768,34.9056 C40.2667439,34.4703978 40.6192265,33.856004 40.6192265,33.0624 C40.6192265,32.3455964 40.350058,31.7952019 39.8117127,31.4112 C39.2733675,31.0271981 38.4786793,30.8352 37.4276243,30.8352 L34.4282873,30.8352 C32.4030838,30.8352 30.8906128,30.4576038 29.8908287,29.7024 C28.8910447,28.9471962 28.3911602,27.9936058 28.3911602,26.8416 C28.3911602,26.1247964 28.6026498,25.4272034 29.0256354,24.7488 C29.4486209,24.0703966 30.0318195,23.5008023 30.7752486,23.04 C29.5191098,22.3487965 28.6026548,21.5360047 28.0258564,20.6016 C27.4490579,19.6671953 27.160663,18.5472065 27.160663,17.2416 C27.160663,15.7567926 27.5259632,14.4576056 28.2565746,13.344 C28.987186,12.2303944 30.0125901,11.372803 31.3328177,10.7712 C32.6530453,10.169597 34.1591076,9.8688 35.8510497,9.8688 C37.9531597,9.9200003 39.6835291,9.740802 41.04221,9.3312 C42.4008908,8.92159795 43.8492741,8.28160435 45.3874033,7.4112 L46.7332597,11.5968 Z M35.9664089,13.5168 C34.9409894,13.5168 34.1270749,13.8431967 33.5246409,14.496 C32.922207,15.1488033 32.6209945,16.0383944 32.6209945,17.1648 C32.6209945,18.3168058 32.922207,19.2255967 33.5246409,19.8912 C34.1270749,20.5568033 34.9538069,20.8896 36.0048619,20.8896 C37.1071879,20.8896 37.9403287,20.5696032 38.5043094,19.9296 C39.0682901,19.2895968 39.3502763,18.3424063 39.3502763,17.088 C39.3502763,14.7071881 38.2223317,13.5168 35.9664089,13.5168 Z M51.680884,10.4832 L51.680884,30.8352 L46.2205525,30.8352 L46.2205525,10.4832 L51.680884,10.4832 Z M48.9122652,0 C49.8864137,0 50.6875107,0.300796992 51.3155801,0.9024 C51.9436496,1.50400301 52.2576796,2.26559539 52.2576796,3.1872 C52.2576796,4.10880461 51.9436496,4.87039699 51.3155801,5.472 C50.6875107,6.07360301 49.8864137,6.3744 48.9122652,6.3744 C47.9381167,6.3744 47.1434285,6.07360301 46.5281768,5.472 C45.9129251,4.87039699 45.6053039,4.10880461 45.6053039,3.1872 C45.6053039,2.26559539 45.9129251,1.50400301 46.5281768,0.9024 C47.1434285,0.300796992 47.9381167,0 48.9122652,0 Z M58.9356906,31.4496 C57.269384,31.4496 55.9748113,30.9696048 55.0519337,30.0096 C54.1290562,29.0495952 53.6676243,27.6864088 53.6676243,25.92 L53.6676243,2.3808 L59.1279558,1.7664 L59.1279558,25.7664 C59.1279558,26.6624045 59.4996648,27.1104 60.2430939,27.1104 C60.6532617,27.1104 61.0121532,27.0336008 61.319779,26.88 L62.4349171,30.7584 C61.3838622,31.2192023 60.217465,31.4496 58.9356906,31.4496 Z M70.4203315,9.8688 C73.4709545,9.8688 75.8550191,10.8223905 77.5725967,12.7296 C79.2901744,14.6368095 80.1489503,17.2799831 80.1489503,20.6592 C80.1489503,22.8096108 79.758015,24.6975919 78.9761326,26.3232 C78.1942503,27.9488081 77.0663057,29.2095955 75.5922652,30.1056 C74.1182247,31.0016045 72.3814465,31.4496 70.3818785,31.4496 C67.3312555,31.4496 64.9407822,30.4960095 63.2103868,28.5888 C61.4799914,26.6815905 60.6148066,24.0384169 60.6148066,20.6592 C60.6148066,18.5087892 61.005742,16.6208081 61.7876243,14.9952 C62.5695067,13.3695919 63.6974512,12.1088045 65.1714917,11.2128 C66.6455323,10.3167955 68.395128,9.8688 70.4203315,9.8688 Z M70.4203315,13.9392 C69.0360152,13.9392 68.0042023,14.4831946 67.3248619,15.5712 C66.6455215,16.6592054 66.3058564,18.3551885 66.3058564,20.6592 C66.3058564,22.9632115 66.6455215,24.6591946 67.3248619,25.7472 C68.0042023,26.8352054 69.0231976,27.3792 70.3818785,27.3792 C71.7405593,27.3792 72.7595546,26.8352054 73.438895,25.7472 C74.1182355,24.6591946 74.4579006,22.9632115 74.4579006,20.6592 C74.4579006,18.3551885 74.1246442,16.6592054 73.4581216,15.5712 C72.7915989,14.4831946 71.7790123,13.9392 70.4203315,13.9392 Z M97.7476243,10.4832 L91.2106078,30.8352 L84.7120442,30.8352 L78.0596685,10.4832 L83.9814365,10.4832 L88.0190055,26.5728 L92.1334807,10.4832 L97.7476243,10.4832 Z M114.115801,20.1984 C114.115801,20.4544013 114.077348,21.1583942 114.000442,22.3104 L101.272486,22.3104 C101.451934,24.1536092 101.951819,25.4591962 102.772154,26.2272 C103.59249,26.9952038 104.707617,27.3792 106.117569,27.3792 C106.989175,27.3792 107.809499,27.2384014 108.578563,26.9568 C109.347628,26.6751986 110.180769,26.2272031 111.078011,25.6128 L113.34674,28.6848 C111.065182,30.5280092 108.488854,31.4496 105.617679,31.4496 C102.413243,31.4496 99.9522733,30.4896096 98.2346962,28.5696 C96.5171185,26.6495904 95.6583426,24.0512164 95.6583426,20.7744 C95.6583426,18.7007896 96.0236428,16.8384083 96.7542542,15.1872 C97.4848655,13.5359917 98.5487223,12.2368047 99.9458564,11.2896 C101.34299,10.3423953 103.002863,9.8688 104.925525,9.8688 C107.822335,9.8688 110.078224,10.7775909 111.693259,12.5952 C113.308295,14.4128091 114.115801,16.9471837 114.115801,20.1984 Z M108.693922,18.6624 C108.693922,15.2831831 107.476255,13.5936 105.040884,13.5936 C103.912922,13.5936 103.03492,14.0095958 102.406851,14.8416 C101.778781,15.6736042 101.400663,17.0239907 101.272486,18.8928 L108.693922,18.8928 L108.693922,18.6624 Z M125.408177,9.9072 C126.023428,9.9072 126.702758,10.009599 127.446188,10.2144 L126.523315,15.4752 C125.805521,15.2959991 125.203096,15.2064 124.716022,15.2064 C123.511154,15.2064 122.575473,15.6287958 121.90895,16.4736 C121.242427,17.3184042 120.716908,18.5983914 120.332375,20.3136 L120.332375,30.8352 L114.872044,30.8352 L114.872044,10.4832 L119.601768,10.4832 L120.101657,14.4384 C120.588731,13.0047928 121.300106,11.891204 122.235801,11.0976 C123.171496,10.303996 124.228944,9.9072 125.408177,9.9072 Z" id="digilover" fill="#000000" fill-rule="nonzero"></path>
            <g id="coeur" transform="translate(128.000000, 1.000000)">
                <rect id="Rectangle-2" fill="#E24542" x="2.40331492" y="4.8" width="2.40331492" height="2.4"></rect>
                <rect id="Rectangle-2" fill="#E91E63" x="4.80662983" y="4.8" width="2.40331492" height="2.4"></rect>
                <rect id="Rectangle-2" fill="#E91E63" x="2.40331492" y="0" width="2.40331492" height="2.4"></rect>
                <rect id="Rectangle-2" fill="#E91E63" x="4.80662983" y="0" width="2.40331492" height="2.4"></rect>
                <rect id="Rectangle-2" fill="#E91E63" x="9.61325967" y="0" width="2.40331492" height="2.4"></rect>
                <rect id="Rectangle-2" fill="#E24542" x="4.80662983" y="2.4" width="2.40331492" height="2.4"></rect>
                <rect id="Rectangle-2" fill="#E91E63" x="0" y="2.4" width="2.40331492" height="2.4"></rect>
                <rect id="Rectangle-2" fill="#E91E63" x="7.20994475" y="2.4" width="2.40331492" height="2.4"></rect>
                <rect id="Rectangle-2" fill="#E91E63" x="7.20994475" y="4.8" width="2.40331492" height="2.4"></rect>
                <rect id="Rectangle-2" fill="#DF3F3C" x="9.61325967" y="2.4" width="2.40331492" height="2.4"></rect>
                <rect id="Rectangle-2" fill="#E91E63" x="12.0165746" y="2.4" width="2.40331492" height="2.4"></rect>
                <rect id="Rectangle-2" fill="#E91E63" x="9.61325967" y="2.4" width="2.40331492" height="2.4"></rect>
                <rect id="Rectangle-2" fill="#E91E63" x="12.0165746" y="4.8" width="2.40331492" height="2.4"></rect>
                <rect id="Rectangle-2" fill="#E91E63" x="14.4198895" y="4.8" width="2.40331492" height="2.4"></rect>
                <rect id="Rectangle-2" fill="#E91E63" x="14.4198895" y="2.4" width="2.40331492" height="2.4"></rect>
                <rect id="Rectangle-2" fill="#E24542" x="0" y="4.8" width="2.40331492" height="2.4"></rect>
                <rect id="Rectangle-2" fill="#E91E63" x="2.40331492" y="7.2" width="2.40331492" height="2.4"></rect>
                <rect id="Rectangle-2" fill="#E91E63" x="0" y="4.8" width="2.40331492" height="2.4"></rect>
                <rect id="Rectangle-2" fill="#E91E63" x="4.80662983" y="9.6" width="2.40331492" height="2.4"></rect>
                <rect id="Rectangle-2" fill="#E91E63" x="7.20994475" y="12" width="2.40331492" height="2.4"></rect>
                <rect id="Rectangle-2" fill="#E91E63" x="9.61325967" y="9.6" width="2.40331492" height="2.4"></rect>
                <rect id="Rectangle-2" fill="#E91E63" x="9.61325967" y="7.2" width="2.40331492" height="2.4"></rect>
                <rect id="Rectangle-2" fill="#E7608E" x="2.40331492" y="2.4" width="2.40331492" height="2.4"></rect>
                <rect id="Rectangle-2" fill="#E7608E" x="4.80662983" y="7.2" width="2.40331492" height="2.4"></rect>
                <rect id="Rectangle-2" fill="#E7608E" x="4.80662983" y="2.4" width="2.40331492" height="2.4"></rect>
                <rect id="Rectangle-2" fill="#E7608E" x="7.20994475" y="7.2" width="2.40331492" height="2.4"></rect>
                <rect id="Rectangle-2" fill="#E7608E" x="7.20994475" y="9.6" width="2.40331492" height="2.4"></rect>
                <rect id="Rectangle-2" fill="#E7608E" x="2.40331492" y="4.8" width="2.40331492" height="2.4"></rect>
                <rect id="Rectangle-2" fill="#E7608E" x="12.0165746" y="0" width="2.40331492" height="2.4"></rect>
                <rect id="Rectangle-2" fill="#E7608E" x="9.61325967" y="4.8" width="2.40331492" height="2.4"></rect>
                <rect id="Rectangle-2" fill="#E7608E" x="12.0165746" y="7.2" width="2.40331492" height="2.4"></rect>
            </g>
        </g>
    </g>
</svg>